<?xml version="1.0" encoding="utf-8"?>
<!-- Generator: Adobe Illustrator 26.5.0, SVG Export Plug-In . SVG Version: 6.00 Build 0)  -->
<svg version="1.1" id="Layer_1" xmlns="http://www.w3.org/2000/svg" xmlns:xlink="http://www.w3.org/1999/xlink" x="0px" y="0px"
	 viewBox="0 0 987.61 564.34" style="enable-background:new 0 0 987.61 564.34;" xml:space="preserve">
<style type="text/css">
	.st0{fill:#6D6D6D;stroke:#FFFFFF;stroke-miterlimit:10;}
	.st1{fill:#CF4070;stroke:#FFFFFF;stroke-miterlimit:10;}
	.st2{fill:#FF0000;stroke:#808080;stroke-miterlimit:10;}
	.st3{stroke:#FFFFFF;stroke-miterlimit:10;}
	.st4{fill:#B7B7B7;stroke:#FFFFFF;stroke-miterlimit:10;}
	.st5{fill:#FFFFFF;stroke:#808080;stroke-miterlimit:10;}
	.st6{fill:#BFDFDF;stroke:#FFFFFF;stroke-miterlimit:10;}
	.st7{fill:#FFFFFF;stroke:#FFFFFF;stroke-width:5;stroke-miterlimit:10;}
	.st8{fill:none;stroke:#FFFFFF;stroke-width:5;stroke-miterlimit:10;}
	.st9{fill:#808080;stroke:#808080;stroke-miterlimit:10;}
	.st10{fill:#FFFFFF;}
	.st11{fill:#FFFFFF;stroke:#FFFFFF;stroke-miterlimit:10;}
	.st12{fill:none;stroke:#000000;stroke-width:4;stroke-miterlimit:10;}
	.st13{fill:#FF8FBA;stroke:#FFFFFF;stroke-miterlimit:10;}
	.st14{fill:#9B9B9B;stroke:#FFFFFF;stroke-miterlimit:10;}
</style>
<g>
	<rect x="282.44" y="282.27" class="st0" width="141.03" height="141.03"/>
	<g>
		<rect x="0.37" y="0.2" class="st1" width="141.03" height="141.03"/>
		<rect x="141.41" y="0.2" class="st1" width="141.03" height="141.03"/>
		<rect x="282.44" y="0.2" class="st1" width="141.03" height="141.03"/>
		<rect x="423.47" y="0.2" class="st1" width="141.03" height="141.03"/>
		<rect x="564.51" y="0.2" class="st1" width="141.03" height="141.03"/>
		<rect x="705.54" y="0.2" class="st1" width="141.03" height="141.03"/>
		<rect x="846.57" y="0.2" class="st1" width="141.03" height="141.03"/>
		<rect x="0.37" y="141.24" class="st1" width="141.03" height="141.03"/>
		<rect x="141.41" y="141.24" class="st1" width="141.03" height="141.03"/>
		<rect x="282.44" y="141.24" class="st1" width="141.03" height="141.03"/>
		<rect x="423.47" y="141.24" class="st1" width="141.03" height="141.03"/>
		<rect x="564.51" y="141.24" class="st1" width="141.03" height="141.03"/>
		<rect x="705.54" y="141.24" class="st1" width="141.03" height="141.03"/>
		<rect x="846.57" y="141.24" class="st1" width="141.03" height="141.03"/>
		<rect x="0.37" y="282.27" class="st1" width="141.03" height="141.03"/>
		<rect x="141.41" y="282.27" class="st1" width="141.03" height="141.03"/>
		<rect x="0.37" y="423.31" class="st1" width="141.03" height="141.03"/>
		<rect x="141.41" y="423.31" class="st1" width="141.03" height="141.03"/>
		<rect x="282.44" y="423.31" class="st1" width="141.03" height="141.03"/>
		<rect x="423.47" y="423.31" class="st1" width="141.03" height="141.03"/>
		<rect x="564.51" y="423.31" class="st1" width="141.03" height="141.03"/>
		<rect x="705.54" y="423.31" class="st1" width="141.03" height="141.03"/>
		<rect x="846.57" y="423.31" class="st1" width="141.03" height="141.03"/>
	</g>
	<g>
		<g>
			<path class="st5" d="M367.55,356.19l25.47,56.74h-34.79l-12.22-34.79l-25.47,34.79h-34.79L334,356.19l-22.98-55.08h34.79
				l10.56,33.75l25.47-33.75h34.79L367.55,356.19z"/>
		</g>
		<g>
			<path class="st3" d="M428.84,288.48h14.17v47.11c6.49-9.79,15.7-14.68,27.65-14.68c11.83,0,21.17,4.21,28,12.63
				c6.83,8.42,10.24,19.86,10.24,34.31c0,14.79-3.53,26.66-10.58,35.59c-7.06,8.93-16.5,13.4-28.34,13.4
				c-12.18,0-21.62-5.12-28.34-15.36v11.44h-12.8V288.48z M467.93,334.23c-7.51,0-13.54,3.16-18.09,9.47
				c-4.55,6.32-6.83,14.71-6.83,25.18c0,10.47,2.28,18.86,6.83,25.18c4.55,6.32,10.58,9.47,18.09,9.47c7.74,0,14.02-3.16,18.86-9.47
				c4.84-6.32,7.25-14.54,7.25-24.67c0-10.7-2.36-19.23-7.08-25.61C482.24,337.42,475.9,334.23,467.93,334.23z"/>
			<path class="st3" d="M540.14,288.48v17.92H525.8v-17.92H540.14z M540.14,323.48v89.45h-14.17v-89.45H540.14z"/>
			<path class="st3" d="M595.79,323.48v11.61h-14.68v61.28c0,3.19,0.54,5.32,1.62,6.4c1.08,1.08,3.16,1.62,6.23,1.62
				c2.84,0,5.12-0.23,6.83-0.68v11.95c-4.44,0.79-8.31,1.19-11.61,1.19c-5.58,0-9.84-1.22-12.8-3.67c-2.96-2.45-4.44-5.95-4.44-10.5
				v-67.6h-12.12v-11.61h12.12V298.9h14.17v24.58H595.79z"/>
			<path class="st3" d="M625.49,288.48v17.92h-14.34v-17.92H625.49z M625.49,323.48v89.45h-14.17v-89.45H625.49z"/>
			<path class="st3" d="M649.73,323.48h13.14v15.02c3.98-6.26,8.28-10.75,12.89-13.49s10.21-4.1,16.81-4.1
				c8.65,0,15.53,2.22,20.66,6.66c5.12,4.44,7.68,10.36,7.68,17.75v67.6h-14.17v-61.96c0-5.35-1.65-9.62-4.95-12.8
				c-3.3-3.19-7.8-4.78-13.49-4.78c-7.28,0-13.14,2.76-17.58,8.28c-4.44,5.52-6.66,12.83-6.66,21.94v49.33h-14.34V323.48z"/>
			<path class="st3" d="M776.73,323.48v11.61h-14.85v77.84h-14.17v-77.84h-11.95v-11.61h11.95v-15.19c0-6.37,1.85-11.35,5.55-14.94
				c3.7-3.58,8.85-5.38,15.45-5.38c2.62,0,5.29,0.29,8.02,0.85v11.78c-2.16-0.11-3.81-0.17-4.95-0.17c-6.6,0-9.9,3.02-9.9,9.05v14
				H776.73z"/>
			<path class="st3" d="M821.63,320.92c12.86,0,22.84,4.24,29.96,12.72c7.11,8.48,10.67,20.46,10.67,35.93
				c0,14.68-3.61,26.23-10.84,34.65c-7.23,8.42-17.1,12.63-29.62,12.63c-12.75,0-22.68-4.24-29.79-12.72
				c-7.11-8.48-10.67-20.23-10.67-35.25c0-15.02,3.58-26.77,10.75-35.25C799.26,325.16,809.11,320.92,821.63,320.92z M821.8,334.06
				c-7.97,0-14.23,3.1-18.78,9.3c-4.55,6.2-6.83,14.71-6.83,25.52c0,10.81,2.28,19.32,6.83,25.52c4.55,6.2,10.81,9.3,18.78,9.3
				c7.85,0,14.08-3.1,18.69-9.3c4.61-6.2,6.91-14.54,6.91-25.01c0-11.04-2.25-19.69-6.74-25.95
				C836.16,337.19,829.88,334.06,821.8,334.06z"/>
		</g>
	</g>
</g>
</svg>
